<svg id="visual" viewBox="0 0 960 540" width="960" height="540" xmlns="http://www.w3.org/2000/svg" xmlns:xlink="http://www.w3.org/1999/xlink" version="1.1"><path d="M0 396L12.3 392.8C24.7 389.7 49.3 383.3 74 388.5C98.7 393.7 123.3 410.3 148 415.2C172.7 420 197.3 413 221.8 389.7C246.3 366.3 270.7 326.7 295.2 324.7C319.7 322.7 344.3 358.3 369 377.2C393.7 396 418.3 398 443 403C467.7 408 492.3 416 517 409.3C541.7 402.7 566.3 381.3 591 378.7C615.7 376 640.3 392 664.8 374.3C689.3 356.7 713.7 305.3 738.2 291C762.7 276.7 787.3 299.3 812 310C836.7 320.7 861.3 319.3 886 335.8C910.7 352.3 935.3 386.7 947.7 403.8L960 421L960 541L947.7 541C935.3 541 910.7 541 886 541C861.3 541 836.7 541 812 541C787.3 541 762.7 541 738.2 541C713.7 541 689.3 541 664.8 541C640.3 541 615.7 541 591 541C566.3 541 541.7 541 517 541C492.3 541 467.7 541 443 541C418.3 541 393.7 541 369 541C344.3 541 319.7 541 295.2 541C270.7 541 246.3 541 221.8 541C197.3 541 172.7 541 148 541C123.3 541 98.7 541 74 541C49.3 541 24.7 541 12.3 541L0 541Z" fill="#111"></path><path d="M0 385L12.3 386.2C24.7 387.3 49.3 389.7 74 398.3C98.7 407 123.3 422 148 423.8C172.7 425.7 197.3 414.3 221.8 411C246.3 407.7 270.7 412.3 295.2 407C319.7 401.7 344.3 386.3 369 373.3C393.7 360.3 418.3 349.7 443 365.5C467.7 381.3 492.3 423.7 517 443.8C541.7 464 566.3 462 591 462.3C615.7 462.7 640.3 465.3 664.8 450C689.3 434.7 713.7 401.3 738.2 398.7C762.7 396 787.3 424 812 418.5C836.7 413 861.3 374 886 363.8C910.7 353.7 935.3 372.3 947.7 381.7L960 391L960 541L947.7 541C935.3 541 910.7 541 886 541C861.3 541 836.7 541 812 541C787.3 541 762.7 541 738.2 541C713.7 541 689.3 541 664.8 541C640.3 541 615.7 541 591 541C566.3 541 541.7 541 517 541C492.3 541 467.7 541 443 541C418.3 541 393.7 541 369 541C344.3 541 319.7 541 295.2 541C270.7 541 246.3 541 221.8 541C197.3 541 172.7 541 148 541C123.3 541 98.7 541 74 541C49.3 541 24.7 541 12.3 541L0 541Z" fill="#136cc9"></path><path d="M0 506L12.3 504.5C24.7 503 49.3 500 74 484.8C98.7 469.7 123.3 442.3 148 428.8C172.7 415.3 197.3 415.7 221.8 429.5C246.3 443.3 270.7 470.7 295.2 479.5C319.7 488.3 344.3 478.7 369 463C393.7 447.3 418.3 425.7 443 421C467.7 416.3 492.3 428.7 517 431.2C541.7 433.7 566.3 426.3 591 430C615.7 433.7 640.3 448.3 664.8 450.5C689.3 452.7 713.7 442.3 738.2 446C762.7 449.7 787.3 467.3 812 467.7C836.7 468 861.3 451 886 449C910.7 447 935.3 460 947.7 466.5L960 473L960 541L947.7 541C935.3 541 910.7 541 886 541C861.3 541 836.7 541 812 541C787.3 541 762.7 541 738.2 541C713.7 541 689.3 541 664.8 541C640.3 541 615.7 541 591 541C566.3 541 541.7 541 517 541C492.3 541 467.7 541 443 541C418.3 541 393.7 541 369 541C344.3 541 319.7 541 295.2 541C270.7 541 246.3 541 221.8 541C197.3 541 172.7 541 148 541C123.3 541 98.7 541 74 541C49.3 541 24.7 541 12.3 541L0 541Z" fill="#1184e1"></path></svg>